<svg viewBox="0 0 100 100" xmlns="http://www.w3.org/2000/svg"><path d="M81,64Q66,78,46,85Q26,92,21.5,71Q17,50,21.5,29Q26,8,48.5,10.5Q71,13,83.5,31.5Q96,50,81,64Z" stroke="none" stroke-width="0" fill="#f6f1e7"/><path d="M76.5,63.5Q66,77,50.5,76.5Q35,76,24.5,63Q14,50,20,29Q26,8,48.5,11Q71,14,79,32Q87,50,76.5,63.5Z" stroke="none" stroke-width="0" fill="#f4ead3"/><path d="M83,71.5Q75,93,54,86.5Q33,80,21.5,65Q10,50,21,34.5Q32,19,49.5,20Q67,21,79,35.5Q91,50,83,71.5Z" stroke="none" stroke-width="0" fill="#f2e3bf"/><path d="M85,68Q71,86,50,86Q29,86,18,68Q7,50,20.5,35.5Q34,21,53,16.5Q72,12,85.5,31Q99,50,85,68Z" stroke="none" stroke-width="0" fill="#f0dcab"/><path d="M79.5,65Q67,80,46.5,85.5Q26,91,21,70.5Q16,50,23,33Q30,16,50.5,14.5Q71,13,81.5,31.5Q92,50,79.5,65Z" stroke="none" stroke-width="0" fill="#eed597"/><path d="M83,69Q72,88,51.5,85.5Q31,83,17.5,66.5Q4,50,15.5,30Q27,10,49.5,11Q72,12,83,31Q94,50,83,69Z" stroke="none" stroke-width="0" fill="#ecce83"/><path d="M77,65.5Q68,81,48,84.5Q28,88,22,69Q16,50,21,29.5Q26,9,47.5,12.5Q69,16,77.5,33Q86,50,77,65.5Z" stroke="none" stroke-width="0" fill="#eac76f"/><path d="M76.5,69.5Q73,89,50,89Q27,89,22.5,69.5Q18,50,24,33Q30,16,51,14Q72,12,76,31Q80,50,76.5,69.5Z" stroke="none" stroke-width="0" fill="#e8c05b"/></svg>