<svg class="border shadow-md" viewBox="0 0 1351.68 760.32" xmlns="http://www.w3.org/2000/svg" preserveAspectRatio="none" style="width: 1351.68px; height: 760.32px;"><rect class="bg" id="bg" x="0" y="0" width="1351.68" height="760.32" fill="#ffffff"/><g transform="rotate(294 675.84 380.16)"><path d="M -337.92 680.32 S -297.00 662.32&#10;            0.00 680.32 158.96 623.32&#10;            337.92 680.32 496.88 641.32&#10;            675.84 680.32 737.76 659.32&#10;            1013.76 680.32 1101.68 639.32&#10;            1351.68 680.32 1510.64 626.32&#10;            1689.60 680.32 h 110 V 1360.3200000000002 H -337.92 Z" fill="#CCA543"/><path d="M -337.92 105.00 S -215.00 54.00&#10;            0.00 105.00 158.96 62.50&#10;            337.92 105.00 379.84 62.50&#10;            675.84 105.00 826.76 62.50&#10;            1013.76 105.00 1172.72 59.00&#10;            1351.68 105.00 1457.60 55.00&#10;            1689.60 105.00 h 110 V -600 H -337.92 Z" fill="#FFFFFF"/></g></svg>